<svg xmlns="http://www.w3.org/2000/svg" xmlns:xlink="http://www.w3.org/1999/xlink" width="250" zoomAndPan="magnify" viewBox="0 0 187.5 89.999999" height="120" preserveAspectRatio="xMidYMid meet" version="1.0"><defs><g/><clipPath id="450da1ebcd"><path d="M 55 8 L 163.863281 8 L 163.863281 32 L 55 32 Z M 55 8 " clip-rule="nonzero"/></clipPath><clipPath id="6c93032a63"><path d="M 19 0.886719 L 34 0.886719 L 34 18 L 19 18 Z M 19 0.886719 " clip-rule="nonzero"/></clipPath><clipPath id="5ba448d930"><rect x="0" width="109" y="0" height="24"/></clipPath><clipPath id="313d821adb"><path d="M 0.976562 1.167969 L 44 1.167969 L 44 50.863281 L 0.976562 50.863281 Z M 0.976562 1.167969 " clip-rule="nonzero"/></clipPath><clipPath id="2c3b6b7bab"><path d="M 27 41 L 43 41 L 43 50.863281 L 27 50.863281 Z M 27 41 " clip-rule="nonzero"/></clipPath><clipPath id="b683b4e87f"><path d="M 41 27 L 50.667969 27 L 50.667969 43 L 41 43 Z M 41 27 " clip-rule="nonzero"/></clipPath><clipPath id="508e96167d"><path d="M 41 9 L 50.667969 9 L 50.667969 25 L 41 25 Z M 41 9 " clip-rule="nonzero"/></clipPath><clipPath id="9ec3faab30"><rect x="0" width="164" y="0" height="52"/></clipPath></defs><g transform="matrix(1, 0, 0, 1, 8, 19)"><g clip-path="url(#9ec3faab30)"><g clip-path="url(#450da1ebcd)"><g transform="matrix(1, 0, 0, 1, 55, 8)"><g clip-path="url(#5ba448d930)"><g fill="#0b457f" fill-opacity="1"><g transform="translate(1.341873, 17.628025)"><g><path d="M 1.796875 0 L 1.796875 -16.125 L 8.171875 -16.125 C 9.140625 -16.125 9.96875 -15.914062 10.65625 -15.5 C 11.34375 -15.082031 11.867188 -14.503906 12.234375 -13.765625 C 12.609375 -13.023438 12.78125 -12.1875 12.75 -11.25 C 12.738281 -10.644531 12.613281 -10.046875 12.375 -9.453125 C 12.144531 -8.867188 11.773438 -8.40625 11.265625 -8.0625 C 11.785156 -7.707031 12.191406 -7.238281 12.484375 -6.65625 C 12.785156 -6.082031 12.9375 -5.476562 12.9375 -4.84375 C 12.9375 -3.945312 12.722656 -3.132812 12.296875 -2.40625 C 11.867188 -1.675781 11.289062 -1.09375 10.5625 -0.65625 C 9.84375 -0.21875 9.046875 0 8.171875 0 Z M 5.046875 -12.90625 L 5.046875 -9.671875 L 7.90625 -9.671875 C 8.375 -9.671875 8.738281 -9.832031 9 -10.15625 C 9.257812 -10.476562 9.390625 -10.851562 9.390625 -11.28125 C 9.390625 -11.738281 9.257812 -12.125 9 -12.4375 C 8.738281 -12.75 8.375 -12.90625 7.90625 -12.90625 Z M 5.046875 -6.4375 L 5.046875 -3.21875 L 7.90625 -3.21875 C 8.375 -3.21875 8.757812 -3.375 9.0625 -3.6875 C 9.375 -4.007812 9.53125 -4.394531 9.53125 -4.84375 C 9.53125 -5.289062 9.375 -5.664062 9.0625 -5.96875 C 8.757812 -6.28125 8.375 -6.4375 7.90625 -6.4375 Z M 5.046875 -6.4375 "/></g></g></g><g clip-path="url(#6c93032a63)"><g fill="#0b457f" fill-opacity="1"><g transform="translate(19.321326, 17.628025)"><g><path d="M 0.359375 0 L 7.140625 -16.703125 L 7.484375 -16.703125 L 14.265625 0 L 10.640625 0 L 9.984375 -1.734375 L 4.640625 -1.734375 L 4.015625 0 Z M 5.8125 -4.75 L 8.78125 -4.75 L 7.328125 -8.9375 Z M 5.8125 -4.75 "/></g></g></g></g><g fill="#0b457f" fill-opacity="1"><g transform="translate(38.02172, 17.628025)"><g><path d="M 1.796875 0 L 1.796875 -16.109375 L 5.03125 -16.109375 L 5.03125 -9.6875 L 9.078125 -16.109375 L 12.84375 -16.109375 L 7.609375 -8.15625 L 13.296875 0 L 9.3125 0 L 5.03125 -6.3125 L 5.03125 0 Z M 1.796875 0 "/></g></g></g><g fill="#0b457f" fill-opacity="1"><g transform="translate(55.618168, 17.628025)"><g><path d="M 9.828125 0 L 6.578125 -6.15625 L 5.03125 -6.15625 L 5.03125 0 L 1.796875 0 L 1.796875 -16.109375 L 8.15625 -16.109375 C 9.113281 -16.109375 9.925781 -15.910156 10.59375 -15.515625 C 11.269531 -15.117188 11.796875 -14.597656 12.171875 -13.953125 C 12.546875 -13.316406 12.773438 -12.625 12.859375 -11.875 C 12.953125 -11.132812 12.894531 -10.40625 12.6875 -9.6875 C 12.488281 -8.976562 12.144531 -8.347656 11.65625 -7.796875 C 11.164062 -7.253906 10.523438 -6.867188 9.734375 -6.640625 L 13.46875 0 Z M 5.03125 -9.28125 L 7.859375 -9.28125 C 8.296875 -9.28125 8.644531 -9.398438 8.90625 -9.640625 C 9.175781 -9.878906 9.351562 -10.175781 9.4375 -10.53125 C 9.53125 -10.894531 9.53125 -11.257812 9.4375 -11.625 C 9.351562 -11.988281 9.175781 -12.289062 8.90625 -12.53125 C 8.644531 -12.769531 8.296875 -12.890625 7.859375 -12.890625 L 5.03125 -12.890625 Z M 5.03125 -9.28125 "/></g></g></g><g fill="#0b457f" fill-opacity="1"><g transform="translate(73.417381, 17.628025)"><g><path d="M 10.140625 0 L 1.796875 0 L 1.796875 -16.109375 L 9.875 -16.109375 L 9.875 -12.890625 L 5.03125 -12.890625 L 5.03125 -9.671875 L 9.265625 -9.671875 L 9.265625 -6.4375 L 5.03125 -6.4375 L 5.03125 -3.21875 L 10.140625 -3.21875 Z M 10.140625 0 "/></g></g></g><g fill="#0b457f" fill-opacity="1"><g transform="translate(88.760885, 17.628025)"><g><path d="M 5.03125 -8.765625 L 5.03125 0 L 1.796875 0 L 1.796875 -16.453125 L 2.65625 -16.453125 L 10.796875 -6.984375 L 10.796875 -16.09375 L 14.03125 -16.09375 L 14.03125 0.34375 L 13.1875 0.34375 Z M 5.03125 -8.765625 "/></g></g></g></g></g></g><g fill="#3ebe91" fill-opacity="1"><g transform="translate(62.284378, 39.120658)"><g><path d="M 3.375 0.078125 C 2.851562 0.078125 2.382812 -0.0078125 1.96875 -0.1875 C 1.5625 -0.375 1.238281 -0.632812 1 -0.96875 C 0.769531 -1.300781 0.648438 -1.679688 0.640625 -2.109375 L 1.75 -2.109375 C 1.78125 -1.734375 1.929688 -1.421875 2.203125 -1.171875 C 2.472656 -0.921875 2.863281 -0.796875 3.375 -0.796875 C 3.875 -0.796875 4.265625 -0.914062 4.546875 -1.15625 C 4.828125 -1.40625 4.96875 -1.722656 4.96875 -2.109375 C 4.96875 -2.410156 4.882812 -2.65625 4.71875 -2.84375 C 4.550781 -3.03125 4.34375 -3.171875 4.09375 -3.265625 C 3.84375 -3.367188 3.503906 -3.476562 3.078125 -3.59375 C 2.554688 -3.726562 2.140625 -3.863281 1.828125 -4 C 1.515625 -4.132812 1.242188 -4.347656 1.015625 -4.640625 C 0.796875 -4.929688 0.6875 -5.320312 0.6875 -5.8125 C 0.6875 -6.25 0.796875 -6.632812 1.015625 -6.96875 C 1.234375 -7.300781 1.539062 -7.554688 1.9375 -7.734375 C 2.34375 -7.921875 2.800781 -8.015625 3.3125 -8.015625 C 4.050781 -8.015625 4.65625 -7.828125 5.125 -7.453125 C 5.601562 -7.078125 5.875 -6.585938 5.9375 -5.984375 L 4.796875 -5.984375 C 4.753906 -6.285156 4.59375 -6.550781 4.3125 -6.78125 C 4.039062 -7.007812 3.671875 -7.125 3.203125 -7.125 C 2.773438 -7.125 2.425781 -7.007812 2.15625 -6.78125 C 1.882812 -6.5625 1.75 -6.253906 1.75 -5.859375 C 1.75 -5.566406 1.828125 -5.328125 1.984375 -5.140625 C 2.148438 -4.960938 2.351562 -4.828125 2.59375 -4.734375 C 2.832031 -4.640625 3.164062 -4.53125 3.59375 -4.40625 C 4.113281 -4.269531 4.53125 -4.128906 4.84375 -3.984375 C 5.164062 -3.847656 5.441406 -3.632812 5.671875 -3.34375 C 5.898438 -3.050781 6.015625 -2.65625 6.015625 -2.15625 C 6.015625 -1.769531 5.910156 -1.40625 5.703125 -1.0625 C 5.503906 -0.726562 5.203125 -0.453125 4.796875 -0.234375 C 4.398438 -0.0234375 3.925781 0.078125 3.375 0.078125 Z M 3.375 0.078125 "/></g></g></g><g fill="#3ebe91" fill-opacity="1"><g transform="translate(70.582801, 39.120658)"><g><path d="M 4.453125 0.078125 C 3.722656 0.078125 3.054688 -0.09375 2.453125 -0.4375 C 1.847656 -0.78125 1.367188 -1.257812 1.015625 -1.875 C 0.660156 -2.488281 0.484375 -3.179688 0.484375 -3.953125 C 0.484375 -4.722656 0.660156 -5.414062 1.015625 -6.03125 C 1.367188 -6.65625 1.847656 -7.140625 2.453125 -7.484375 C 3.054688 -7.828125 3.722656 -8 4.453125 -8 C 5.191406 -8 5.863281 -7.828125 6.46875 -7.484375 C 7.082031 -7.140625 7.5625 -6.660156 7.90625 -6.046875 C 8.25 -5.429688 8.421875 -4.734375 8.421875 -3.953125 C 8.421875 -3.179688 8.25 -2.488281 7.90625 -1.875 C 7.5625 -1.257812 7.082031 -0.78125 6.46875 -0.4375 C 5.863281 -0.09375 5.191406 0.078125 4.453125 0.078125 Z M 4.453125 -0.8125 C 5.003906 -0.8125 5.5 -0.941406 5.9375 -1.203125 C 6.382812 -1.460938 6.734375 -1.828125 6.984375 -2.296875 C 7.242188 -2.773438 7.375 -3.328125 7.375 -3.953125 C 7.375 -4.585938 7.242188 -5.140625 6.984375 -5.609375 C 6.734375 -6.085938 6.390625 -6.453125 5.953125 -6.703125 C 5.515625 -6.960938 5.015625 -7.09375 4.453125 -7.09375 C 3.898438 -7.09375 3.398438 -6.960938 2.953125 -6.703125 C 2.515625 -6.453125 2.171875 -6.085938 1.921875 -5.609375 C 1.671875 -5.140625 1.546875 -4.585938 1.546875 -3.953125 C 1.546875 -3.328125 1.671875 -2.773438 1.921875 -2.296875 C 2.171875 -1.828125 2.515625 -1.460938 2.953125 -1.203125 C 3.398438 -0.941406 3.898438 -0.8125 4.453125 -0.8125 Z M 4.453125 -0.8125 "/></g></g></g><g fill="#3ebe91" fill-opacity="1"><g transform="translate(81.137215, 39.120658)"><g><path d="M 1.90625 -0.84375 L 4.671875 -0.84375 L 4.671875 0 L 0.875 0 L 0.875 -7.90625 L 1.90625 -7.90625 Z M 1.90625 -0.84375 "/></g></g></g><g fill="#3ebe91" fill-opacity="1"><g transform="translate(87.67846, 39.120658)"><g><path d="M 5.546875 -1.765625 L 2.09375 -1.765625 L 1.46875 0 L 0.375 0 L 3.234375 -7.859375 L 4.421875 -7.859375 L 7.265625 0 L 6.1875 0 Z M 5.25 -2.59375 L 3.828125 -6.59375 L 2.390625 -2.59375 Z M 5.25 -2.59375 "/></g></g></g><g fill="#3ebe91" fill-opacity="1"><g transform="translate(96.96317, 39.120658)"><g><path d="M 5.03125 0 L 3.15625 -3.234375 L 1.90625 -3.234375 L 1.90625 0 L 0.875 0 L 0.875 -7.90625 L 3.421875 -7.90625 C 4.023438 -7.90625 4.53125 -7.800781 4.9375 -7.59375 C 5.351562 -7.394531 5.660156 -7.117188 5.859375 -6.765625 C 6.066406 -6.421875 6.171875 -6.023438 6.171875 -5.578125 C 6.171875 -5.035156 6.015625 -4.554688 5.703125 -4.140625 C 5.390625 -3.722656 4.914062 -3.445312 4.28125 -3.3125 L 6.265625 0 Z M 1.90625 -4.0625 L 3.421875 -4.0625 C 3.984375 -4.0625 4.40625 -4.195312 4.6875 -4.46875 C 4.96875 -4.75 5.109375 -5.117188 5.109375 -5.578125 C 5.109375 -6.046875 4.96875 -6.410156 4.6875 -6.671875 C 4.414062 -6.929688 3.992188 -7.0625 3.421875 -7.0625 L 1.90625 -7.0625 Z M 1.90625 -4.0625 "/></g></g></g><g fill="#3ebe91" fill-opacity="1"><g transform="translate(105.499662, 39.120658)"><g/></g></g><g fill="#3ebe91" fill-opacity="1"><g transform="translate(110.170361, 39.120658)"><g><path d="M 1.90625 -7.0625 L 1.90625 -4.421875 L 4.78125 -4.421875 L 4.78125 -3.578125 L 1.90625 -3.578125 L 1.90625 -0.84375 L 5.125 -0.84375 L 5.125 0 L 0.875 0 L 0.875 -7.921875 L 5.125 -7.921875 L 5.125 -7.0625 Z M 1.90625 -7.0625 "/></g></g></g><g fill="#3ebe91" fill-opacity="1"><g transform="translate(117.629869, 39.120658)"><g><path d="M 7.09375 0 L 6.0625 0 L 1.90625 -6.296875 L 1.90625 0 L 0.875 0 L 0.875 -7.921875 L 1.90625 -7.921875 L 6.0625 -1.640625 L 6.0625 -7.921875 L 7.09375 -7.921875 Z M 7.09375 0 "/></g></g></g><g fill="#3ebe91" fill-opacity="1"><g transform="translate(127.243348, 39.120658)"><g><path d="M 1.90625 -7.0625 L 1.90625 -4.421875 L 4.78125 -4.421875 L 4.78125 -3.578125 L 1.90625 -3.578125 L 1.90625 -0.84375 L 5.125 -0.84375 L 5.125 0 L 0.875 0 L 0.875 -7.921875 L 5.125 -7.921875 L 5.125 -7.0625 Z M 1.90625 -7.0625 "/></g></g></g><g fill="#3ebe91" fill-opacity="1"><g transform="translate(134.702858, 39.120658)"><g><path d="M 5.03125 0 L 3.15625 -3.234375 L 1.90625 -3.234375 L 1.90625 0 L 0.875 0 L 0.875 -7.90625 L 3.421875 -7.90625 C 4.023438 -7.90625 4.53125 -7.800781 4.9375 -7.59375 C 5.351562 -7.394531 5.660156 -7.117188 5.859375 -6.765625 C 6.066406 -6.421875 6.171875 -6.023438 6.171875 -5.578125 C 6.171875 -5.035156 6.015625 -4.554688 5.703125 -4.140625 C 5.390625 -3.722656 4.914062 -3.445312 4.28125 -3.3125 L 6.265625 0 Z M 1.90625 -4.0625 L 3.421875 -4.0625 C 3.984375 -4.0625 4.40625 -4.195312 4.6875 -4.46875 C 4.96875 -4.75 5.109375 -5.117188 5.109375 -5.578125 C 5.109375 -6.046875 4.96875 -6.410156 4.6875 -6.671875 C 4.414062 -6.929688 3.992188 -7.0625 3.421875 -7.0625 L 1.90625 -7.0625 Z M 1.90625 -4.0625 "/></g></g></g><g fill="#3ebe91" fill-opacity="1"><g transform="translate(143.239347, 39.120658)"><g><path d="M 4.859375 -7.90625 L 4.859375 -2.0625 C 4.859375 -1.414062 4.65625 -0.894531 4.25 -0.5 C 3.851562 -0.113281 3.328125 0.078125 2.671875 0.078125 C 2.003906 0.078125 1.46875 -0.117188 1.0625 -0.515625 C 0.664062 -0.910156 0.46875 -1.453125 0.46875 -2.140625 L 1.5 -2.140625 C 1.507812 -1.753906 1.609375 -1.441406 1.796875 -1.203125 C 1.992188 -0.960938 2.285156 -0.84375 2.671875 -0.84375 C 3.054688 -0.84375 3.34375 -0.957031 3.53125 -1.1875 C 3.71875 -1.414062 3.8125 -1.707031 3.8125 -2.0625 L 3.8125 -7.90625 Z M 4.859375 -7.90625 "/></g></g></g><g fill="#3ebe91" fill-opacity="1"><g transform="translate(150.891579, 39.120658)"><g><path d="M 1.90625 -7.90625 L 1.90625 0 L 0.875 0 L 0.875 -7.90625 Z M 1.390625 -8.640625 C 1.222656 -8.640625 1.082031 -8.691406 0.96875 -8.796875 C 0.851562 -8.910156 0.796875 -9.050781 0.796875 -9.21875 C 0.796875 -9.382812 0.851562 -9.523438 0.96875 -9.640625 C 1.082031 -9.765625 1.222656 -9.828125 1.390625 -9.828125 C 1.554688 -9.828125 1.695312 -9.765625 1.8125 -9.640625 C 1.925781 -9.523438 1.984375 -9.382812 1.984375 -9.21875 C 1.984375 -9.050781 1.925781 -8.910156 1.8125 -8.796875 C 1.695312 -8.691406 1.554688 -8.640625 1.390625 -8.640625 Z M 1.390625 -8.640625 "/></g></g></g><g clip-path="url(#313d821adb)"><path fill="#0b457f" d="M 23.367188 21.9375 L 23.230469 14.816406 L 15.789062 25.203125 L 26.066406 27.75 L 27.722656 28.160156 L 27.773438 29.871094 L 27.992188 37.152344 L 35.503906 26.667969 L 25.074219 24.085938 L 23.402344 23.671875 Z M 27.414062 1.167969 L 27.464844 1.171875 L 27.464844 1.167969 L 27.464844 1.171875 C 33.132812 1.535156 38.28125 3.792969 42.289062 7.320312 L 38.980469 10.628906 C 35.851562 7.957031 31.898438 6.222656 27.554688 5.859375 L 27.59375 7.957031 L 27.828125 20.132812 L 39.808594 23.097656 L 43.035156 23.898438 L 41.101562 26.597656 L 24.304688 50.828125 C 18.054688 50.445312 12.425781 47.75 8.269531 43.589844 C 3.765625 39.089844 0.980469 32.867188 0.980469 26 C 0.980469 19.128906 3.765625 12.910156 8.269531 8.410156 C 12.425781 4.25 18.054688 1.554688 24.304688 1.167969 L 24.101562 5.863281 L 27.414062 1.242188 Z M 24.101562 5.867188 C 19.140625 6.242188 14.882812 8.394531 11.570312 11.710938 C 7.914062 15.367188 5.648438 20.417969 5.648438 26 C 5.648438 31.578125 7.914062 36.632812 11.570312 40.289062 C 14.828125 43.550781 19.199219 45.703125 24.066406 46.128906 L 23.335938 31.707031 L 11.484375 28.777344 L 8.257812 27.976562 L 10.1875 25.277344 L 23.515625 6.679688 Z M 24.101562 5.867188 " fill-opacity="1" fill-rule="nonzero"/></g><g clip-path="url(#2c3b6b7bab)"><path fill="#3ebe91" d="M 42.339844 44.632812 C 38.316406 48.199219 33.125 50.476562 27.414062 50.828125 L 27.554688 46.140625 C 31.976562 45.800781 35.863281 44.050781 39.03125 41.324219 Z M 42.339844 44.632812 " fill-opacity="1" fill-rule="nonzero"/></g><g clip-path="url(#b683b4e87f)"><path fill="#3ebe91" d="M 50.691406 27.507812 C 50.351562 33.210938 48.085938 38.398438 44.539062 42.429688 L 41.230469 39.121094 C 43.941406 35.945312 45.6875 31.925781 46.011719 27.503906 L 50.691406 27.503906 Z M 50.691406 27.507812 " fill-opacity="1" fill-rule="nonzero"/></g><g clip-path="url(#508e96167d)"><path fill="#3ebe91" d="M 44.492188 9.515625 C 48.046875 13.53125 50.324219 18.703125 50.683594 24.394531 L 46.003906 24.394531 C 45.660156 19.992188 43.898438 15.984375 41.183594 12.824219 Z M 44.492188 9.515625 " fill-opacity="1" fill-rule="nonzero"/></g></g></g></svg>